<svg id="main" xmlns="http://www.w3.org/2000/svg" viewBox="0 0 32 32"><defs><style>.cls-1{fill:none;stroke:#fff;stroke-miterlimit:10;stroke-width:0.96px;}.cls-2{fill:#fff;}</style></defs><title>table</title><g id="table"><rect class="cls-1" x="21.2" y="7.93" width="5.2" height="5.2"/><rect class="cls-1" x="16.01" y="7.93" width="5.2" height="5.2" transform="translate(37.21 21.06) rotate(-180)"/><rect class="cls-1" x="5.6" y="7.94" width="5.2" height="5.2" transform="translate(16.4 21.08) rotate(-180)"/><rect class="cls-1" x="10.81" y="7.93" width="5.2" height="5.2"/><rect class="cls-1" x="21.2" y="13.13" width="5.2" height="5.2"/><rect class="cls-1" x="16.01" y="13.13" width="5.2" height="5.2" transform="translate(37.21 31.45) rotate(180)"/><rect class="cls-1" x="5.62" y="13.13" width="5.2" height="5.2" transform="translate(16.43 31.45) rotate(180)"/><rect class="cls-1" x="10.81" y="13.13" width="5.2" height="5.2"/><rect class="cls-1" x="21.2" y="18.32" width="5.2" height="5.2"/><rect class="cls-1" x="16.01" y="18.32" width="5.2" height="5.2" transform="translate(37.21 41.84) rotate(-180)"/><rect class="cls-1" x="5.62" y="18.32" width="5.2" height="5.2" transform="translate(16.43 41.84) rotate(-180)"/><rect class="cls-1" x="10.81" y="18.32" width="5.2" height="5.2"/><rect class="cls-2" x="7.16" y="9.5" width="2.08" height="2.08"/><rect class="cls-2" x="12.35" y="9.5" width="2.08" height="2.08" transform="translate(26.79 21.08) rotate(-180)"/><rect class="cls-2" x="22.78" y="9.5" width="2.08" height="2.08" transform="translate(47.64 21.08) rotate(-180)"/><rect class="cls-2" x="17.58" y="9.5" width="2.08" height="2.08"/><rect class="cls-2" x="7.16" y="14.69" width="2.08" height="2.08"/><rect class="cls-2" x="7.16" y="19.87" width="2.08" height="2.08"/></g></svg>